<svg xmlns="http://www.w3.org/2000/svg" viewBox="0 0 32 40" x="0px" y="0px"><g data-name="Layer 24"><path d="M17.5,16.5a3,3,0,0,0-3-3,1,1,0,0,1,0-2h2a1,1,0,0,0,0-2h-1v-1a1,1,0,0,0-2,0V9.68a3,3,0,0,0,1,5.82,1,1,0,0,1,0,2h-2a1,1,0,0,0,0,2h1v1a1,1,0,0,0,2,0V19.32A3,3,0,0,0,17.5,16.5Z"/><path d="M25.18,17.14a11.22,11.22,0,0,0,.32-2.64A11,11,0,0,0,6.72,6.72,11,11,0,0,0,14.5,25.5a11.22,11.22,0,0,0,2.64-.32,6,6,0,1,0,8-8ZM14.5,23.5a9,9,0,1,1,9-9,8.84,8.84,0,0,1-.24,2.05,6.33,6.33,0,0,0-.76-.05,6,6,0,0,0-6,6,6.33,6.33,0,0,0,.05.76A8.84,8.84,0,0,1,14.5,23.5Zm8,3a4,4,0,1,1,4-4A4,4,0,0,1,22.5,26.5Z"/><path d="M24.5,21.5h-1v-1a1,1,0,0,0-2,0v1h-1a1,1,0,0,0,0,2h1v1a1,1,0,0,0,2,0v-1h1a1,1,0,0,0,0-2Z"/></g><text x="0" y="47" fill="#000000" font-size="5px" font-weight="bold" font-family="'Helvetica Neue', Helvetica, Arial-Unicode, Arial, Sans-serif">Created by Yosua Bungaran</text><text x="0" y="52" fill="#000000" font-size="5px" font-weight="bold" font-family="'Helvetica Neue', Helvetica, Arial-Unicode, Arial, Sans-serif">from the Noun Project</text></svg>