<svg xmlns="http://www.w3.org/2000/svg" xmlns:xlink="http://www.w3.org/1999/xlink" version="1.1" x="0px" y="0px" viewBox="0 0 32 40" enable-background="new 0 0 32 32" xml:space="preserve"><g><path d="M27,2H5C3.3,2,2,3.3,2,5v8c0,1.7,1.3,3,3,3h3v11c0,1.7,1.3,3,3,3h10c1.7,0,3-1.3,3-3V16h3c1.7,0,3-1.3,3-3V5   C30,3.3,28.7,2,27,2z M22,27c0,0.6-0.4,1-1,1H11c-0.6,0-1-0.4-1-1V10h12V27z M28,13c0,0.6-0.4,1-1,1h-3v-4h1c0.6,0,1-0.4,1-1   s-0.4-1-1-1h-2H9H7C6.4,8,6,8.4,6,9s0.4,1,1,1h1v4H5c-0.6,0-1-0.4-1-1V5c0-0.6,0.4-1,1-1h22c0.6,0,1,0.4,1,1V13z"/><path d="M15,16h4c0.6,0,1-0.4,1-1s-0.4-1-1-1h-2v-1c0-0.6-0.4-1-1-1s-1,0.4-1,1v1c-1.7,0-3,1.3-3,3s1.3,3,3,3h2c0.6,0,1,0.4,1,1   s-0.4,1-1,1h-4c-0.6,0-1,0.4-1,1s0.4,1,1,1h2v1c0,0.6,0.4,1,1,1s1-0.4,1-1v-1c1.7,0,3-1.3,3-3s-1.3-3-3-3h-2c-0.6,0-1-0.4-1-1   S14.4,16,15,16z"/></g></svg>