<svg width="32" height="32" viewBox="0 0 32 32" fill="none" xmlns="http://www.w3.org/2000/svg">
<path d="M16 19.3333C17.841 19.3333 19.3333 17.841 19.3333 16C19.3333 14.1591 17.841 12.6667 16 12.6667C14.1591 12.6667 12.6667 14.1591 12.6667 16C12.6667 17.841 14.1591 19.3333 16 19.3333Z" stroke="#5B53F1" stroke-width="1.5" stroke-miterlimit="10" stroke-linecap="round" stroke-linejoin="round"/>
<path d="M24.6667 12.6667V19.3333" stroke="#5B53F1" stroke-width="1.5" stroke-miterlimit="10" stroke-linecap="round" stroke-linejoin="round"/>
<path d="M12 24C12 25 11.72 25.9467 11.2267 26.7467C10.3067 28.2933 8.61333 29.3333 6.66666 29.3333C4.71999 29.3333 3.02664 28.2933 2.10664 26.7467C1.61331 25.9467 1.33333 25 1.33333 24C1.33333 21.0533 3.71999 18.6667 6.66666 18.6667C9.61333 18.6667 12 21.0533 12 24Z" stroke="#5B53F1" stroke-width="1.5" stroke-miterlimit="10" stroke-linecap="round" stroke-linejoin="round"/>
<path d="M8.65559 23.9727H4.68228" stroke="#5B53F1" stroke-width="1.5" stroke-miterlimit="10" stroke-linecap="round" stroke-linejoin="round"/>
<path d="M6.66666 22.026V26.0127" stroke="#5B53F1" stroke-width="1.5" stroke-miterlimit="10" stroke-linecap="round" stroke-linejoin="round"/>
<path d="M2.66667 20.4V12C2.66667 7.33333 5.33334 5.33333 9.33334 5.33333H22.6667C26.6667 5.33333 29.3333 7.33333 29.3333 12V20C29.3333 24.6667 26.6667 26.6667 22.6667 26.6667H11.3333" stroke="#5B53F1" stroke-width="1.5" stroke-miterlimit="10" stroke-linecap="round" stroke-linejoin="round"/>
</svg>
