<svg width="24" height="24" viewBox="0 0 24 24" fill="none" xmlns="http://www.w3.org/2000/svg">
<path d="M18.95 14.7849C18.479 13.8029 16.794 12.4398 15.166 11.1228C14.258 10.3888 13.4 9.69485 12.853 9.14787C12.716 9.00987 12.511 8.96585 12.33 9.03087C11.993 9.15288 11.785 9.24687 11.621 9.31985C11.3711 9.43183 11.2871 9.46985 10.95 9.50383C10.801 9.51883 10.667 9.59885 10.584 9.72283C9.87701 10.7798 9.14501 10.6898 8.65601 10.5258C8.50001 10.4739 8.47203 10.4068 8.45703 10.3428C8.35203 9.90387 8.87905 8.88185 9.56201 8.19883C11.187 6.57283 12.025 6.16582 13.795 6.95683C15.803 7.85482 17.815 8.55785 17.835 8.56483C18.098 8.65582 18.381 8.51782 18.472 8.25682C18.562 7.99582 18.425 7.71082 18.164 7.61983C18.144 7.61285 16.172 6.92383 14.204 6.04282C11.911 5.0178 10.653 5.6928 8.85598 7.49083C8.17198 8.17483 7.24297 9.55882 7.48297 10.5738C7.58595 11.0058 7.88998 11.3259 8.34195 11.4748C9.47497 11.8488 10.5089 11.4908 11.279 10.4689C11.597 10.4199 11.77 10.3479 12.0299 10.2309C12.1239 10.1889 12.2339 10.1399 12.38 10.0809C12.952 10.6179 13.724 11.2428 14.537 11.8998C16.007 13.0888 17.674 14.4369 18.049 15.2169C18.234 15.6018 18.035 15.8529 17.9 15.9678C17.702 16.1379 17.431 16.1919 17.284 16.0888C17.122 15.9778 16.911 15.9708 16.744 16.0708C16.576 16.1708 16.482 16.3598 16.503 16.5538C16.537 16.8718 16.246 17.0538 16.12 17.1168C15.8 17.2788 15.466 17.2509 15.341 17.1348C15.2009 17.0049 14.9999 16.9668 14.822 17.0328C14.644 17.0998 14.5199 17.2638 14.5019 17.4538C14.4719 17.7818 14.2289 18.0968 13.9119 18.2198C13.7589 18.2778 13.5369 18.3128 13.3379 18.1308C13.214 18.0188 13.0419 17.9758 12.881 18.0148C12.718 18.0548 12.587 18.1728 12.53 18.3298C12.511 18.3798 12.4679 18.4998 11.9999 18.4998C11.6669 18.4998 11.0679 18.2748 10.775 18.0808C10.424 17.8498 8.22294 16.2078 6.32197 14.6158C6.05497 14.3908 5.59297 13.9088 5.18497 13.4828C4.82295 13.1048 4.49197 12.7618 4.32195 12.6178C4.10895 12.4378 3.79395 12.4648 3.61695 12.6768C3.43897 12.8878 3.46494 13.2038 3.67597 13.3818C3.83098 13.5128 4.13098 13.8298 4.46197 14.1748C4.90798 14.6408 5.36895 15.1228 5.67898 15.3828C7.541 16.9418 9.779 18.6248 10.225 18.9178C10.593 19.1598 11.386 19.4998 12 19.4998C12.493 19.4998 12.872 19.3868 13.135 19.1658C13.487 19.3028 13.887 19.3038 14.272 19.1538C14.727 18.9778 15.101 18.6228 15.313 18.1928C15.707 18.2768 16.158 18.2178 16.568 18.0118C16.969 17.8099 17.2589 17.5008 17.4029 17.1398C17.801 17.1608 18.2109 17.0198 18.5499 16.7288C19.124 16.2379 19.282 15.4739 18.95 14.7849Z" fill="black"/>
<path d="M9.99995 6.49982H5.49995C5.22395 6.49982 4.99994 6.72383 4.99994 6.99983C4.99994 7.27583 5.22395 7.49985 5.49995 7.49985H9.99995C10.276 7.49985 10.5 7.27583 10.5 6.99983C10.5 6.72383 10.276 6.49982 9.99995 6.49982Z" fill="black"/>
<path d="M20.415 13.7209C20.2599 13.4919 19.95 13.4289 19.721 13.5849L18.259 14.5669C18.03 14.7208 17.969 15.0319 18.123 15.2608C18.22 15.4039 18.378 15.4819 18.539 15.4819C18.634 15.4819 18.731 15.4549 18.817 15.3969L20.279 14.4149C20.508 14.2609 20.5689 13.9499 20.415 13.7209Z" fill="black"/>
<path d="M17.311 16.1069C16.953 15.8249 15.352 14.1859 14.362 13.1539C14.171 12.9539 13.854 12.9469 13.655 13.1389C13.455 13.3299 13.449 13.6469 13.64 13.8459C13.897 14.1139 16.164 16.4769 16.691 16.8929C16.782 16.9649 16.892 16.9999 17 16.9999C17.147 16.9999 17.294 16.9339 17.394 16.8089C17.565 16.5929 17.528 16.2779 17.311 16.1069Z" fill="black"/>
<path d="M15.313 17.1099C14.714 16.6308 13.209 15.0318 12.869 14.6619C12.681 14.4579 12.366 14.4459 12.162 14.6319C11.9589 14.8188 11.945 15.1359 12.132 15.3389C12.15 15.3579 13.946 17.2969 14.688 17.8909C14.78 17.9639 14.891 17.9999 15 17.9999C15.146 17.9999 15.2919 17.9349 15.3909 17.8129C15.563 17.5968 15.528 17.2818 15.313 17.1099Z" fill="black"/>
<path d="M13.323 18.1168C12.61 17.5158 11.151 15.9628 10.866 15.6578C10.677 15.4558 10.36 15.4448 10.159 15.6338C9.95697 15.8228 9.94694 16.1388 10.135 16.3408C10.545 16.7798 11.941 18.2598 12.678 18.8818C12.772 18.9608 12.886 18.9998 13 18.9998C13.1419 18.9998 13.284 18.9388 13.383 18.8218C13.561 18.6098 13.534 18.2948 13.323 18.1168Z" fill="black"/>
<path d="M5.844 5.63688C4.98698 4.82486 1.56 4.56185 0.530016 4.50086C0.388031 4.49388 0.257016 4.54085 0.157031 4.63586C0.057 4.72985 0 4.86185 0 4.99985V13.9998C0 14.2758 0.224016 14.4999 0.500016 14.4999H3.50002C3.71602 14.4999 3.90802 14.3609 3.975 14.1549C4.04798 13.9308 5.77102 8.64288 5.99798 6.04286C6.01102 5.89085 5.955 5.74085 5.844 5.63688ZM3.135 13.4999H0.999984V5.53586C2.607 5.66285 4.341 5.93885 4.971 6.24485C4.70602 8.43485 3.507 12.3258 3.135 13.4999Z" fill="black"/>
<path d="M23.5 5.49982C19.574 5.49982 17.396 6.50482 17.305 6.54682C17.175 6.6078 17.078 6.72082 17.038 6.85783C16.998 6.99485 17.018 7.14185 17.093 7.26382C17.711 8.25883 19.646 13.7848 20.018 15.1328C20.078 15.3498 20.275 15.4998 20.5 15.4998H23.5C23.776 15.4998 24 15.2758 24 14.9998V5.99979C24 5.7228 23.776 5.49982 23.5 5.49982ZM23 14.4998H20.874C20.4 12.9558 19 8.9298 18.219 7.26583C18.982 7.00685 20.621 6.56182 23 6.50585V14.4998Z" fill="black"/>
</svg>
