<svg width="33" height="32" viewBox="0 0 33 32" fill="none" xmlns="http://www.w3.org/2000/svg">
<path d="M16.4993 0C7.66394 0 0.5 7.16394 0.5 15.9993C0.5 24.8347 7.66394 32 16.4993 32C25.3347 32 32.5 24.8347 32.5 15.9993C32.5 7.16394 25.3347 0 16.4993 0ZM19.83 24.7968C19.0065 25.1219 18.3509 25.3684 17.8592 25.539C17.3689 25.7097 16.7987 25.7951 16.1499 25.7951C15.153 25.7951 14.3768 25.5512 13.8242 25.065C13.2716 24.5787 12.9966 23.9624 12.9966 23.2134C12.9966 22.9222 13.0169 22.6242 13.0575 22.3208C13.0995 22.0174 13.1659 21.676 13.2567 21.2927L14.2874 17.6518C14.3782 17.3023 14.4567 16.9705 14.519 16.6617C14.5814 16.3501 14.6112 16.0643 14.6112 15.8043C14.6112 15.341 14.515 15.016 14.324 14.8331C14.1303 14.6502 13.7659 14.5608 13.2228 14.5608C12.9573 14.5608 12.6837 14.6001 12.4033 14.6828C12.1257 14.7681 11.8846 14.8453 11.6868 14.9211L11.959 13.7996C12.6336 13.5247 13.2797 13.289 13.896 13.0939C14.5123 12.8962 15.0947 12.7986 15.6433 12.7986C16.6334 12.7986 17.3974 13.0397 17.9351 13.5165C18.4701 13.9947 18.7397 14.6164 18.7397 15.3803C18.7397 15.5388 18.7207 15.8178 18.6841 16.216C18.6476 16.6156 18.5785 16.98 18.4782 17.3145L17.4529 20.9446C17.3689 21.2358 17.2944 21.569 17.2267 21.9415C17.1603 22.314 17.1278 22.5984 17.1278 22.7894C17.1278 23.2716 17.2348 23.6008 17.4515 23.7755C17.6655 23.9502 18.0407 24.0383 18.5717 24.0383C18.8223 24.0383 19.1027 23.9936 19.4196 23.9069C19.7339 23.8202 19.9614 23.743 20.105 23.6766L19.83 24.7968ZM19.6485 10.0626C19.1704 10.5068 18.5947 10.729 17.9215 10.729C17.2497 10.729 16.67 10.5068 16.1878 10.0626C15.7083 9.61829 15.4658 9.07784 15.4658 8.44665C15.4658 7.81681 15.7097 7.27501 16.1878 6.82667C16.67 6.37697 17.2497 6.15348 17.9215 6.15348C18.5947 6.15348 19.1717 6.37697 19.6485 6.82667C20.1267 7.27501 20.3664 7.81681 20.3664 8.44665C20.3664 9.0792 20.1267 9.61829 19.6485 10.0626Z" fill="#5B53F1"/>
</svg>
