<svg xmlns="http://www.w3.org/2000/svg" data-name="Layer 1" viewBox="0 0 64 80" x="0px" y="0px"><title>Shopping</title><path d="M27.4,29.04a2.123,2.123,0,0,1-2.121,2.12,1,1,0,0,0-1,1v7.925a1,1,0,0,0,1,1A2.123,2.123,0,0,1,27.4,43.206a1,1,0,0,0,1,1H52.521a1,1,0,0,0,1-1,2.123,2.123,0,0,1,2.12-2.121,1,1,0,0,0,1-1V32.16a1,1,0,0,0-1-1,2.122,2.122,0,0,1-2.12-2.12,1,1,0,0,0-1-1H28.4A1,1,0,0,0,27.4,29.04Zm24.248,1a4.131,4.131,0,0,0,3,3v6.171a4.131,4.131,0,0,0-3,3H29.273a4.132,4.132,0,0,0-3-3V33.037a4.133,4.133,0,0,0,3-3Z"/><path d="M59.883,24H49.063V6.015a1,1,0,0,0-1-1H18.628a1,1,0,0,0-.707.292L5.588,17.64a1,1,0,0,0-.293.707V59.665a1,1,0,0,0,1,1H48.063a1,1,0,0,0,1-1V48.245h10.82a1,1,0,0,0,1-1V25A1,1,0,0,0,59.883,24ZM17.628,8.429v8.918H8.71ZM47.063,58.665H7.3V19.347H18.628a1,1,0,0,0,1-1V7.015H47.063V24H21.034a1,1,0,0,0-1,1V47.245a1,1,0,0,0,1,1H47.063Zm11.82-12.42H22.034V26H58.883Z"/><path d="M25.275,16.268H41.416a1,1,0,0,0,0-2H25.275a1,1,0,0,0,0,2Z"/><path d="M16.259,27.7H10.974a1,1,0,0,0,0,2h5.285a1,1,0,0,0,0-2Z"/><path d="M16.259,33.411H10.974a1,1,0,0,0,0,2h5.285a1,1,0,0,0,0-2Z"/><path d="M16.259,39.125H10.974a1,1,0,0,0,0,2h5.285a1,1,0,0,0,0-2Z"/><path d="M16.259,44.84H10.974a1,1,0,0,0,0,2h5.285a1,1,0,0,0,0-2Z"/></svg>