<svg width="24" height="24" viewBox="0 0 24 24" fill="none" xmlns="http://www.w3.org/2000/svg">
<path d="M12 22.75C11.3 22.75 10.59 22.48 10.06 21.95L8.35001 20.26C7.92001 19.84 7.35999 19.61 6.75999 19.61H6C3.93 19.61 2.25 17.94 2.25 15.89V4.97998C2.25 2.92998 3.93 1.26001 6 1.26001H18C20.07 1.26001 21.75 2.92998 21.75 4.97998V15.89C21.75 17.94 20.07 19.61 18 19.61H17.24C16.64 19.61 16.07 19.84 15.65 20.26L13.94 21.95C13.41 22.48 12.7 22.75 12 22.75ZM6 2.75C4.76 2.75 3.75 3.74997 3.75 4.96997V15.88C3.75 17.11 4.76 18.1 6 18.1H6.75999C7.75999 18.1 8.7 18.4899 9.41 19.1899L11.12 20.88C11.61 21.36 12.4 21.36 12.89 20.88L14.6 19.1899C15.31 18.4899 16.25 18.1 17.25 18.1H18C19.24 18.1 20.25 17.1 20.25 15.88V4.96997C20.25 3.73997 19.24 2.75 18 2.75H6Z" fill="#5B53F1"/>
<path d="M9.21024 11.86L8.92929 11.4464C8.91246 11.4578 8.89549 11.4693 8.8784 11.4809C8.3896 11.8125 7.80212 12.211 7.49314 12.7672L7.08046 13.51H7.93022H10.3702C10.5041 13.51 10.6202 13.6262 10.6202 13.76C10.6202 13.9026 10.5054 14.01 10.3802 14.01H7.70023C7.42192 14.01 7.16224 13.878 6.99556 13.6472L6.99558 13.6472L6.99305 13.6437C6.8434 13.4402 6.80175 13.1873 6.87748 12.9293C7.16815 12.0484 7.87315 11.5559 8.65123 11.0236C9.04151 10.7601 9.40185 10.5103 9.65872 10.2383C9.93636 9.94437 10.1202 9.5971 10.1202 9.15002C10.1202 8.35392 9.47641 7.70996 8.68022 7.70996C7.88403 7.70996 7.24023 8.35394 7.24023 9.15002C7.24023 9.28388 7.12409 9.40002 6.99023 9.40002C6.85638 9.40002 6.74023 9.28388 6.74023 9.15002C6.74023 8.08481 7.60772 7.20996 8.68022 7.20996C9.75406 7.20996 10.6202 8.07615 10.6202 9.15002C10.6202 10.2614 9.81288 10.8435 8.92842 11.447L9.21024 11.86ZM9.21024 11.86C8.8943 12.0746 8.58902 12.2821 8.341 12.51H7.93022V13.01L8.3673 13.2528C8.41364 13.1694 8.47332 13.0894 8.54597 13.01H10.3702C10.7802 13.01 11.1202 13.35 11.1202 13.76C11.1202 14.17 10.7902 14.51 10.3802 14.51H7.70023C7.26023 14.51 6.85023 14.2999 6.59023 13.9399C6.34023 13.5999 6.28022 13.18 6.40022 12.78L9.21024 11.86Z" fill="#5B53F1" stroke="#5B53F1"/>
<path d="M16.0399 14.5101C15.6299 14.5101 15.2899 14.1701 15.2899 13.7601V13.07H13.3299C13.3299 13.07 13.3299 13.07 13.3199 13.07C12.8299 13.07 12.3799 12.8101 12.1299 12.3901C11.8799 11.9601 11.8799 11.4301 12.1299 11.0101C12.8099 9.84007 13.5999 8.51003 14.3199 7.35003C14.6399 6.84003 15.2499 6.61008 15.8199 6.77008C16.3899 6.94008 16.7899 7.46012 16.7799 8.06012V11.58H16.9999C17.4099 11.58 17.7499 11.92 17.7499 12.33C17.7499 12.74 17.4099 13.08 16.9999 13.08H16.7899V13.7701C16.7899 14.1801 16.4599 14.5101 16.0399 14.5101ZM15.2899 8.64007C14.6999 9.60007 14.0899 10.63 13.5399 11.57H15.2899V8.64007Z" fill="#5B53F1"/>
</svg>
