<svg width="24" height="24" viewBox="0 0 24 24" fill="none" xmlns="http://www.w3.org/2000/svg">
<path d="M12 12.75C8.83 12.75 6.25 10.17 6.25 7C6.25 3.83 8.83 1.25 12 1.25C15.17 1.25 17.75 3.83 17.75 7C17.75 10.17 15.17 12.75 12 12.75ZM12 2.75C9.66 2.75 7.75 4.66 7.75 7C7.75 9.34 9.66 11.25 12 11.25C14.34 11.25 16.25 9.34 16.25 7C16.25 4.66 14.34 2.75 12 2.75Z" fill="#5B53F1"/>
<path d="M20.5901 22.25C20.4563 22.25 20.3401 22.1339 20.3401 22C20.3401 18.1738 16.4843 15.25 12.0002 15.25C7.51602 15.25 3.66016 18.1738 3.66016 22C3.66016 22.1339 3.54401 22.25 3.41016 22.25C3.2763 22.25 3.16016 22.1339 3.16016 22C3.16016 18.0893 7.03505 14.75 12.0002 14.75C16.9653 14.75 20.8401 18.0893 20.8401 22C20.8401 22.1339 20.724 22.25 20.5901 22.25Z" fill="#5B53F1" stroke="#5B53F1"/>
</svg>
