<svg width="32" height="32" viewBox="0 0 32 32" fill="none" xmlns="http://www.w3.org/2000/svg">
<path d="M12.6667 18.3333C12.6667 19.6267 13.6667 20.6667 14.8934 20.6667H17.4C18.4667 20.6667 19.3333 19.76 19.3333 18.6267C19.3333 17.4133 18.8 16.9733 18.0133 16.6933L14 15.2933C13.2133 15.0133 12.68 14.5867 12.68 13.36C12.68 12.24 13.5467 11.32 14.6133 11.32H17.12C18.3467 11.32 19.3467 12.36 19.3467 13.6533" stroke="#2FB344" stroke-width="1.5" stroke-linecap="round" stroke-linejoin="round"/>
<path d="M16 10V22" stroke="#2FB344" stroke-width="1.5" stroke-linecap="round" stroke-linejoin="round"/>
<path d="M29.3333 16C29.3333 23.36 23.36 29.3333 16 29.3333C8.64 29.3333 2.66667 23.36 2.66667 16C2.66667 8.64001 8.64 2.66667 16 2.66667" stroke="#2FB344" stroke-width="1.5" stroke-linecap="round" stroke-linejoin="round"/>
<path d="M29.3333 8V2.66667H24" stroke="#2FB344" stroke-width="1.5" stroke-linecap="round" stroke-linejoin="round"/>
<path d="M22.6667 9.33334L29.3333 2.66667" stroke="#2FB344" stroke-width="1.5" stroke-linecap="round" stroke-linejoin="round"/>
</svg>
